<svg xmlns="http://www.w3.org/2000/svg" width="375" height="72.001" viewBox="0 0 375 72.001">
  <path id="Subtraction_2" data-name="Subtraction 2" d="M-293,223.942H-668v-40a31.8,31.8,0,0,1,2.515-12.456,31.886,31.886,0,0,1,6.858-10.172,31.9,31.9,0,0,1,10.171-6.858A31.8,31.8,0,0,1-636,151.941h84.218v.017a44.532,44.532,0,0,1,16.55,2.833,27.376,27.376,0,0,1,9.524,6.234,20.809,20.809,0,0,1,5.393,9.067l.028-.429a43.963,43.963,0,0,0,9.188,13.375,43.7,43.7,0,0,0,31.1,12.9,44.12,44.12,0,0,0,40.141-25.984l.009.134s0-.019.009-.039c.014-.055.042-.17.088-.332.432-.973.832-1.974,1.19-2.973a24.054,24.054,0,0,1,8.572-9.359c5.584-3.6,12.854-5.43,21.609-5.43v-.017H-326a32.79,32.79,0,0,1,12.845,2.593,32.9,32.9,0,0,1,10.49,7.073,32.871,32.871,0,0,1,7.071,10.49A32.789,32.789,0,0,1-293,184.941v39h0Z" transform="translate(668 -151.941)" fill="#575555"/>
</svg>
