<svg xmlns="http://www.w3.org/2000/svg" viewBox="0 0 58.06 49.18"><defs><style>.cls-1{fill:#575655;}.cls-2{fill:#fcb028;}.cls-3{fill:#ea9523;}.cls-4{fill:#fff;}</style></defs><title>Asset 5</title><g id="Layer_2" data-name="Layer 2"><g id="Layer_1-2" data-name="Layer 1"><path class="cls-1" d="M48.65,23.23,38.7,28.93,27.44,9.25l9.95-5.69a6.18,6.18,0,0,1,7.06.65,10.62,10.62,0,0,1,3-4.2,24.21,24.21,0,0,0-.57,7.63,9.62,9.62,0,0,0,.5,2.14s.15-.22.42-.53c.7-.83,2.19-2.33,3.68-2.2a18.08,18.08,0,0,0-1.9,5.31,5.35,5.35,0,0,0,0,.78s.12-.11.33-.26a4.83,4.83,0,0,1,3.23-1.12,18.22,18.22,0,0,0-1.83,3.63A6.17,6.17,0,0,1,48.65,23.23Z"/><polygon class="cls-1" points="19.2 21.73 23.76 29.71 14.7 29.6 19.2 21.73"/><polygon class="cls-2" points="37.06 29.87 25.22 29.73 19.92 20.46 25.8 10.19 37.06 29.87"/><polygon class="cls-3" points="37.06 29.87 25.22 29.73 22.57 25.1 31.43 20.03 37.06 29.87"/><ellipse class="cls-4" cx="37.5" cy="10.6" rx="5.16" ry="3.02" transform="translate(-0.31 20.03) rotate(-29.78)"/><path class="cls-1" d="M38.28,12c-1.29.74-2.69.72-3.12,0s.26-2,1.55-2.7a4.33,4.33,0,0,1,.89-.39.55.55,0,0,0-.11.6c.16.28.67.28,1.14,0a1.23,1.23,0,0,0,.59-.66,1.07,1.07,0,0,1,.61.47C40.27,10,39.57,11.23,38.28,12Z"/><ellipse class="cls-4" cx="42.61" cy="19.53" rx="5.16" ry="3.02" transform="translate(-4.07 23.75) rotate(-29.78)"/><path class="cls-1" d="M43.39,20.9c-1.29.74-2.68.73-3.12,0s.26-2,1.55-2.7,2.69-.72,3.12,0A1.12,1.12,0,0,1,45,19a1.13,1.13,0,0,0-1,.14c-.47.27-.73.71-.57,1a.59.59,0,0,0,.64.2A4.43,4.43,0,0,1,43.39,20.9Z"/><path class="cls-4" d="M27.64,22.31a8.89,8.89,0,0,1-1.09-5,.38.38,0,0,1,.75.1,7.48,7.48,0,0,0,4.35,7.59.38.38,0,0,1-.32.68A8.11,8.11,0,0,1,27.64,22.31Z"/><path class="cls-1" d="M13,28a1,1,0,0,1-.72,1.73H7.73V43a1.1,1.1,0,0,1-1.87.78A1.06,1.06,0,0,1,5.54,43V29.75H1a1,1,0,1,1,0-2H12.24A1,1,0,0,1,13,28Z"/><path class="cls-1" d="M22.58,33.58a1.32,1.32,0,0,1-.13.5L16,48.53a.86.86,0,0,1-.82.65,1.32,1.32,0,0,1-.5-.13.88.88,0,0,1-.63-.82,1.12,1.12,0,0,1,.13-.5L16.3,43l-4.73-9a.89.89,0,0,1-.1-.44.84.84,0,0,1,.17-.5,1.11,1.11,0,0,1,.44-.36,1,1,0,0,1,.42-.08.94.94,0,0,1,.88.59l3.84,7.64,3.38-7.62a.88.88,0,0,1,.82-.61,1.21,1.21,0,0,1,.5.1A.86.86,0,0,1,22.58,33.58Z"/><path class="cls-1" d="M33.19,33.33a5.53,5.53,0,0,1,2.09,2.1,5.92,5.92,0,0,1,.76,3,6.26,6.26,0,0,1-.7,3,5.3,5.3,0,0,1-1.93,2.09,5.24,5.24,0,0,1-6.79-1.16V48a1.09,1.09,0,0,1-1.84.78,1,1,0,0,1-.3-.78V38.41a5.85,5.85,0,0,1,.77-3,5.66,5.66,0,0,1,5-2.87A5.82,5.82,0,0,1,33.19,33.33Zm-1.05,8.48a3.71,3.71,0,0,0,1.34-1.41,4.08,4.08,0,0,0,.49-2,4.14,4.14,0,0,0-.49-2A3.7,3.7,0,0,0,32.14,35,3.66,3.66,0,0,0,27,36.39a4.2,4.2,0,0,0-.48,2,4.14,4.14,0,0,0,.48,2,3.71,3.71,0,0,0,5.13,1.41Z"/><path class="cls-1" d="M49.27,38.88a1,1,0,0,1-.69.26h-8a3.7,3.7,0,0,0,1.33,2.37,4.26,4.26,0,0,0,4,.67,3.91,3.91,0,0,0,1.12-.57,1.09,1.09,0,0,1,.69-.23.9.9,0,0,1,.63.21.92.92,0,0,1,.38.71.76.76,0,0,1-.34.63,5.8,5.8,0,0,1-1.77.92,6.41,6.41,0,0,1-5.11-.39,5.41,5.41,0,0,1-2.13-2.07,5.88,5.88,0,0,1-.77-3,6.21,6.21,0,0,1,.72-3,5.24,5.24,0,0,1,2-2.08,5.76,5.76,0,0,1,2.93-.75,5.28,5.28,0,0,1,2.79.71,4.71,4.71,0,0,1,1.81,2,6.57,6.57,0,0,1,.63,2.94A.88.88,0,0,1,49.27,38.88Zm-7.44-3.66a3.77,3.77,0,0,0-1.21,2.25h7a3.72,3.72,0,0,0-1-2.25,3.08,3.08,0,0,0-2.25-.84A3.63,3.63,0,0,0,41.82,35.21Z"/><path class="cls-1" d="M57.8,42.33a1.09,1.09,0,0,1,.26.76,1,1,0,0,1-.35.76,1.33,1.33,0,0,1-.89.29h-.38a3.46,3.46,0,0,1-1.88-.54,3.73,3.73,0,0,1-1.33-1.46,4.41,4.41,0,0,1-.48-2.08V34.88h-1a1,1,0,0,1-.71-.25A.82.82,0,0,1,50.8,34a.87.87,0,0,1,.27-.67,1,1,0,0,1,.71-.25h1V30a1.05,1.05,0,1,1,2.1,0v3h1.78a1,1,0,0,1,.71.25.87.87,0,0,1,.27.67.82.82,0,0,1-.27.63,1,1,0,0,1-.71.25H54.85v5.19a2.15,2.15,0,0,0,.46,1.41,1.41,1.41,0,0,0,1.13.57h.71A.83.83,0,0,1,57.8,42.33Z"/></g></g></svg>